<svg width="1600" height="900" viewBox="0 0 1600 900" xmlns="http://www.w3.org/2000/svg" role="img" aria-label="Stylised factory production line background">
  <defs>
    <linearGradient id="bg" x1="0" y1="0" x2="1" y2="1">
      <stop offset="0%" stop-color="#0b3c7d" />
      <stop offset="50%" stop-color="#124d9c" />
      <stop offset="100%" stop-color="#1f2937" />
    </linearGradient>
  </defs>
  <rect width="1600" height="900" fill="url(#bg)" />
  <g fill="none" stroke="#ffffff" stroke-opacity="0.2" stroke-width="2">
    <path d="M0 700 L200 640 L400 680 L600 580 L800 620 L1000 540 L1200 560 L1400 520 L1600 560" />
    <path d="M0 540 L160 520 L320 480 L480 500 L640 440 L800 460 L960 420 L1120 440 L1280 420 L1440 440 L1600 420" />
  </g>
  <g fill="#ffffff" fill-opacity="0.1">
    <rect x="180" y="300" width="140" height="260" rx="12" />
    <rect x="420" y="260" width="180" height="320" rx="16" />
    <rect x="690" y="280" width="160" height="300" rx="16" />
    <rect x="940" y="240" width="200" height="340" rx="18" />
    <rect x="1220" y="260" width="160" height="310" rx="16" />
  </g>
</svg>
